<?xml version="1.0" standalone="no"?>
<!DOCTYPE svg PUBLIC "-//W3C//DTD SVG 1.1//EN" "http://www.w3.org/Graphics/SVG/1.1/DTD/svg11.dtd" >
<svg xmlns="http://www.w3.org/2000/svg">
<metadata></metadata>
<defs>
<font id="atlassian-icons" horiz-adv-x="1200" >
<font-face units-per-em="2048" ascent="1664" descent="-384" />
<missing-glyph horiz-adv-x="500" />
<glyph horiz-adv-x="2048" />
<glyph horiz-adv-x="2048" />
<glyph unicode="&#xd;" horiz-adv-x="2048" />
<glyph unicode=" " />
<glyph unicode="A" horiz-adv-x="2048" d="M2048 634q-10 14 -28 37t-78.5 90t-124 128t-159.5 135.5t-191 128t-213 90.5t-230 37t-229.5 -35.5t-215 -91.5t-189 -124.5t-161 -137t-122 -124.5t-79.5 -91l-28 -36q10 -13 28 -36t78 -89.5t124 -127t159.5 -134.5t190.5 -127t212.5 -89.5t229.5 -36.5t229.5 35 t215 91t189.5 123.5t161.5 135t122.5 123.5t80 91zM1408 640q0 -101 -56.5 -190.5t-145.5 -141.5t-182 -52q-92 0 -180.5 52t-146 142t-57.5 190t57.5 190t146.5 142t180 52q93 0 182 -52.5t145.5 -142t56.5 -189.5zM1152 640q0 69 -31 98.5t-97 29.5t-97 -29.5t-31 -98.5 t31 -98.5t97 -29.5t97 29.5t31 98.5z" />
<glyph unicode="B" horiz-adv-x="2048" d="M2048 754q0 21 -20.5 40t-43.5 22l-310 56q-23 6 -30.5 22t4.5 34l176 258q11 18 8.5 42.5t-18.5 39.5l-166 166q-17 17 -40.5 20t-41.5 -10l-258 -174q-18 -11 -35 -3t-21 29l-56 306q-3 23 -22 42.5t-40 19.5h-236q-22 0 -41.5 -19.5t-22.5 -42.5l-56 -310 q-3 -21 -20.5 -28t-35.5 4l-256 176q-19 12 -43.5 9t-40.5 -19l-166 -166q-16 -16 -18.5 -40t8.5 -42l176 -258q12 -18 4.5 -34t-30.5 -22l-302 -56q-21 -3 -37.5 -22t-16.5 -40v-236q0 -22 16.5 -41.5t37.5 -22.5l304 -56q21 -3 28.5 -19.5t-4.5 -34.5l-176 -258 q-11 -18 -8.5 -43t18.5 -41l166 -166q16 -16 40.5 -18t43.5 10l256 172q18 14 35.5 7t20.5 -29l56 -306q3 -21 22.5 -38.5t41.5 -17.5h236q21 0 40 17.5t22 38.5l56 308q4 22 21 28t35 -6l258 -172q18 -14 43 -12t41 18l164 166q16 16 19.5 41t-7.5 43l-174 258 q-13 18 -5 34.5t31 19.5l306 56q23 3 43.5 22.5t20.5 41.5v236zM1408 640q0 -99 -53 -188t-142 -142.5t-189 -53.5q-99 0 -188 53.5t-142.5 142.5t-53.5 188t53.5 188t142.5 142.5t188 53.5q100 0 189 -53.5t142 -142.5t53 -188z" />
<glyph unicode="C" horiz-adv-x="2048" d="M1742 896q78 0 128 -45.5t50 -120.5v-188q0 -74 -49.5 -116t-128.5 -42h-462v-462q0 -79 -42 -128.5t-116 -49.5h-188q-75 0 -120.5 50t-45.5 128v462h-454q-80 0 -133 42t-53 116v188q0 75 53.5 120.5t132.5 45.5h454v454q0 79 45.5 132.5t120.5 53.5h188q74 0 116 -53 t42 -133v-454h462z" />
<glyph unicode="D" horiz-adv-x="2048" d="M1024 -384q166 0 322.5 52t282.5 147t220.5 221.5t146.5 283t52 322.5q0 207 -81.5 396t-218.5 326t-326.5 218.5t-397.5 81.5t-397.5 -81.5t-326.5 -218.5t-218.5 -326t-81.5 -396q0 -166 52 -322.5t146.5 -283t220.5 -221.5t282.5 -147t322.5 -52zM1024 1464 q168 0 321 -65t263.5 -175t176 -262.5t65.5 -319.5q0 -168 -65.5 -321t-176 -263.5t-263.5 -176t-321 -65.5t-321 65.5t-263.5 176t-176 263.5t-65.5 321q0 167 65.5 319.5t176 262.5t263.5 175t321 65zM816 932q-8 -33 -35 -54.5t-61 -21.5q-40 0 -69 29.5t-29 70.5 q0 14 2 20q15 126 114 210q108 96 284 96q187 0 294 -98q110 -92 110 -222q0 -69 -40 -134q-38 -61 -172 -174q-71 -58 -84 -90q-9 -21 -12 -58q-4 -36 -4 -70q0 -26 -12.5 -38.5t-28.5 -15t-49 -2.5h-16h-17.5t-16.5 1t-16.5 3.5t-13 7t-12 10.5t-7 16t-3.5 22l-2 12v46 q0 87 30 150q33 60 126 138q94 76 112 100q28 34 28 82q0 64 -50 108t-134 44q-80 0 -138 -46q-52 -47 -74 -142h-4zM1024 286q60 0 103 -42t43 -102q0 -59 -43 -102.5t-103 -43.5t-103 43.5t-43 102.5q0 60 43 102t103 42z" />
<glyph unicode="E" horiz-adv-x="2048" d="M2032 -120q12 -14 12 -32t-12 -30l-186 -186q-14 -12 -32 -12t-30 12l-512 512q-201 -132 -446 -132q-168 0 -321 65.5t-263.5 176t-176 263.5t-65.5 321t65.5 321t176 263.5t263.5 176t321 65.5t321 -65.5t263.5 -176t176 -263.5t65.5 -321q0 -245 -132 -446zM262 838 q0 -152 76 -282t206 -206t282 -76t282 76t206 206t76 282t-76 282t-206 206t-282 76t-282 -76t-206 -206t-76 -282z" />
<glyph unicode="F" horiz-adv-x="2048" d="M2018 1166q22 -25 22 -59.5t-22 -56.5l-1098 -1112q-27 -23 -66.5 -40.5t-71.5 -17.5h-96q-34 0 -74.5 17.5t-63.5 40.5l-518 528q-22 22 -22 56t22 60l204 202q23 26 56.5 26t59.5 -26l328 -330q26 -26 60 -26t56 26l904 916q26 22 60 22t56 -22z" />
<glyph unicode="G" horiz-adv-x="2048" d="M2048 384v-384q0 -52 -38 -90t-90 -38h-1792q-52 0 -90 38t-38 90v384l384 1024h1280zM256 384h512v-128q0 -48 40 -88t88 -40h256q48 0 88 40t40 88v128h512l-256 896h-1024zM768 896h-128v256h768v-256h-128v128h-512v-128zM1408 640h-768v-128h-128v256h1024v-256 h-128v128z" />
<glyph unicode="H" horiz-adv-x="2048" d="M2048 384v-384q0 -52 -38 -90t-90 -38h-1792q-52 0 -90 38t-38 90v384l384 1024h1280zM256 384h512v-128q0 -48 40 -88t88 -40h256q48 0 88 40t40 88v128h512l-256 896h-1024z" />
<glyph unicode="I" />
<glyph unicode="J" />
<glyph unicode="K" />
<glyph unicode="L" />
<glyph unicode="M" />
<glyph unicode="N" />
<glyph unicode="O" />
<glyph unicode="P" />
<glyph unicode="Q" />
<glyph unicode="R" />
<glyph unicode="S" />
<glyph unicode="T" />
<glyph unicode="U" />
<glyph unicode="V" />
<glyph unicode="W" />
<glyph unicode="X" />
<glyph unicode="Y" />
<glyph unicode="Z" />
<glyph unicode="a" />
<glyph unicode="b" />
<glyph unicode="c" />
<glyph unicode="d" />
<glyph unicode="e" />
<glyph unicode="f" />
<glyph unicode="g" />
<glyph unicode="h" />
<glyph unicode="i" />
<glyph unicode="j" />
<glyph unicode="k" />
<glyph unicode="l" />
<glyph unicode="m" />
<glyph unicode="n" />
<glyph unicode="o" />
<glyph unicode="p" />
<glyph unicode="q" />
<glyph unicode="r" />
<glyph unicode="s" />
<glyph unicode="t" />
<glyph unicode="u" />
<glyph unicode="v" />
<glyph unicode="w" />
<glyph unicode="x" />
<glyph unicode="y" />
<glyph unicode="z" />
<glyph unicode="&#xe000;" horiz-adv-x="1000" d="M0 0z" />
</font>
</defs>
</svg>
